<?xml version="1.0" standalone="no"?><!DOCTYPE svg PUBLIC "-//W3C//DTD SVG 1.1//EN" "http://www.w3.org/Graphics/SVG/1.1/DTD/svg11.dtd"><svg t="1682233145983" class="icon" viewBox="0 0 1024 1024" version="1.1" xmlns="http://www.w3.org/2000/svg" p-id="5008" xmlns:xlink="http://www.w3.org/1999/xlink" width="200" height="200"><path d="M912.96 551.168A255.104 255.104 0 0 1 981.333333 725.333333c0 141.376-114.624 256-256 256-94.762667 0-177.493333-51.477333-221.76-128H384a85.333333 85.333333 0 0 1-85.546667 85.333334h-42.24A85.418667 85.418667 0 0 1 170.666667 853.333333c-23.552 0-42.666667-19.136-42.666667-42.794666V554.666667a42.666667 42.666667 0 0 1-42.666667-42.624v-106.752C85.333333 381.738667 104.426667 362.666667 128 362.666667V170.794667A85.269333 85.269333 0 0 1 213.12 85.333333h597.76A85.290667 85.290667 0 0 1 896 170.794667V362.666667a42.666667 42.666667 0 0 1 42.666667 42.624v106.752c0 17.514667-10.581333 32.576-25.706667 39.125333zM866.88 512H896v-106.709333L853.333333 405.333333V170.794667C853.333333 147.114667 834.282667 128 810.88 128H213.12C189.696 128 170.666667 147.114667 170.666667 170.794667V405.333333H128v106.709334L170.666667 512v85.333333h332.906666c44.266667-76.522667 126.997333-128 221.76-128 52.330667 0 101.013333 15.701333 141.568 42.666667z m-382.933333 127.914667H170.666667v170.624l313.216 0.064A255.573333 255.573333 0 0 1 469.333333 725.333333c0-29.952 5.141333-58.709333 14.592-85.418666zM213.333333 746.666667v-42.666667h128v42.666667h-128z m42.88 149.333333h42.24c23.786667 0 42.88-19.072 42.88-42.666667h-128c0 23.552 19.157333 42.666667 42.88 42.666667zM725.333333 938.666667c117.824 0 213.333333-95.509333 213.333334-213.333334s-95.509333-213.333333-213.333334-213.333333-213.333333 95.509333-213.333333 213.333333 95.509333 213.333333 213.333333 213.333334z m21.333334-200.768l54.229333 54.229333a21.333333 21.333333 0 0 1-0.149333 30.016 21.184 21.184 0 0 1-30.016 0.149333l-60.629334-60.608a20.992 20.992 0 0 1-6.101333-14.954666v-128.128c0-11.733333 9.472-21.269333 21.333333-21.269334 11.776 0 21.333333 9.664 21.333334 21.269334v119.296z" fill="#3D3D3D" p-id="5009"></path></svg>